<svg aria-hidden="true" style="position: absolute; width: 0; height: 0; overflow: hidden;" version="1.1" xmlns="http://www.w3.org/2000/svg" xmlns:xlink="http://www.w3.org/1999/xlink">
<defs>
<symbol id="icon-btn_svg" viewBox="0 0 32 32">
<path d="M32 3.223l-3.223-3.223-12.777 12.777-12.777-12.777-3.223 3.223 12.777 12.777-12.777 12.777 3.223 3.223 12.777-12.777 12.777 12.777 3.223-3.223-12.777-12.777 12.777-12.777z"></path>
</symbol>
<symbol id="icon-click" viewBox="0 0 53 32">
<path fill="" style="" d="M1.21 2.506c0.75-0.75 1.767-1.171 2.828-1.171s2.078 0.421 2.828 1.171l19.8 19.8 19.8-19.8c0.754-0.729 1.765-1.132 2.814-1.123s2.052 0.43 2.794 1.171c0.742 0.742 1.162 1.745 1.171 2.794s-0.394 2.059-1.123 2.814l-22.628 22.628c-0.75 0.75-1.767 1.171-2.828 1.171s-2.078-0.421-2.828-1.171l-22.628-22.628c-0.75-0.75-1.171-1.767-1.171-2.828s0.421-2.078 1.171-2.828z"></path>
</symbol>
<symbol id="icon-map" viewBox="0 0 20 32">
<path fill="#f3c653" style="fill: var(--color1, #f3c653)" d="M10 0.018c-5.524 0-10 4.458-10 9.98 0 9.548 10 22 10 22s10-12.454 10-22c0-5.52-4.476-9.98-10-9.98zM10 15.52c-1.432 0-2.806-0.569-3.818-1.582s-1.582-2.386-1.582-3.818c0-1.432 0.569-2.806 1.582-3.818s2.386-1.582 3.818-1.582c1.432 0 2.806 0.569 3.818 1.582s1.582 2.386 1.582 3.818c0 1.432-0.569 2.806-1.582 3.818s-2.386 1.582-3.818 1.582z"></path>
</symbol>
<symbol id="icon-arrow-prev" viewBox="0 0 32 32">
<path style="" d="M31.083 15h-26.077l6-6-1.416-1.414-8.413 8.414 8.414 8.414 1.415-1.414-6-6h26.077v-2z"></path>
</symbol>
<symbol id="icon-arrow-next" viewBox="0 0 32 32">
<path style="" d="M22.492 7.586l-1.414 1.414 6 6h-26.078v2h26.078l-6 6 1.414 1.414 8.414-8.414-8.414-8.414z"></path>
</symbol>
</defs>
</svg>
