<svg aria-hidden="true" style="position: absolute; width: 0; height: 0; overflow: hidden;" version="1.1" xmlns="http://www.w3.org/2000/svg" xmlns:xlink="http://www.w3.org/1999/xlink">
<defs>
<symbol id="icon-map-location-pin" viewBox="0 0 32 32">
<path style="" d="M16 3.215c-0.004 0-0.009 0-0.013 0-4.41 0-7.986 3.575-7.987 7.985v0c0 7.639 8 17.6 8 17.6s8-9.963 8-17.6c-0.002-4.41-3.577-7.984-7.987-7.984-0.005 0-0.009 0-0.014 0h0.001zM16 15.616c-2.386 0-4.32-1.934-4.32-4.32s1.934-4.32 4.32-4.32v0c2.386 0 4.32 1.934 4.32 4.32s-1.934 4.32-4.32 4.32v0z"></path>
</symbol>
<symbol id="icon-phone" viewBox="0 0 32 32">
<path style="" d="M21 2.667c1.657 0 3 1.343 3 3v0 20.667c0 1.657-1.343 3-3 3v0h-10c-1.657 0-3-1.343-3-3v0-20.667c0-1.657 1.343-3 3-3v0h10zM21 4.667h-10c-0.552 0-1 0.448-1 1v0 20.667c0 0.552 0.448 1 1 1h10c0.552 0 1-0.448 1-1v0-20.667c0-0.552-0.448-1-1-1v0zM17.665 23.333c0 0 0.001 0 0.001 0 0.552 0 1 0.448 1 1s-0.447 0.999-0.999 1l-3.333 0.005c-0 0-0.001 0-0.001 0-0.552 0-1-0.448-1-1s0.447-0.999 0.999-1l3.333-0.005z"></path>
</symbol>
</defs>
</svg>
